<svg xmlns="http://www.w3.org/2000/svg" height="24px" viewBox="0 -960 960 960" width="24px">
  <!-- グラデーションの定義 -->
  <defs>
    <linearGradient id="gradient1" x1="0%" y1="0%" x2="100%" y2="0%">
      <stop offset="0%" style="stop-color:#A8BFFF;stop-opacity:1" />
      <stop offset="100%" style="stop-color:#f9d423;stop-opacity:1" />
    </linearGradient>
  </defs>

  <!-- パスにグラデーションを適用 -->
  <path d="M600-320h160v-160h-60v100H600v60ZM200-560h60v-100h100v-60H200v160Zm120 440v-80H160q-33 0-56.5-23.5T80-280v-480q0-33 23.5-56.5T160-840h640q33 0 56.5 23.5T880-760v480q0 33-23.5 56.5T800-200H640v80H320ZM160-280h640v-480H160v480Zm0 0v-480 480Z" fill="url(#gradient1)"/>
</svg>
